<svg width="48" height="48" xmlns="http://www.w3.org/2000/svg">

 <metadata>Google Inc.</metadata>
 <g>
  <title>Layer 1</title>
  <path fill="#ffffff" id="svg_1" d="m34,40.78c-0.57,0 -1.13,-0.12 -1.53,-0.3c-1.41,-0.75 -2.43,-1.77 -3.42,-4.77c-1.03,-3.11 -2.94,-4.58 -4.79,-6.01c-1.58,-1.22 -3.22,-2.48 -4.63,-5.05c-1.05,-1.92 -1.63,-4.01 -1.63,-5.87c0,-5.61 4.39,-10 10,-10s10,4.39 10,10l4,0c0,-7.85 -6.15,-14 -14,-14s-14,6.15 -14,14c0,2.53 0.76,5.3 2.13,7.8c1.82,3.31 3.97,4.96 5.7,6.3c1.62,1.25 2.79,2.15 3.43,4.09c1.2,3.63 2.75,5.68 5.45,7.1c1.04,0.47 2.14,0.71 3.29,0.71c4.41,0 8,-3.59 8,-8l-4,0c0,2.21 -1.79,4 -4,4zm-18.73,-34.73l-2.83,-2.83c-3.98,3.98 -6.44,9.48 -6.44,15.56s2.46,11.58 6.44,15.56l2.83,-2.83c-3.26,-3.26 -5.27,-7.76 -5.27,-12.73s2.01,-9.47 5.27,-12.73zm7.73,12.73c0,2.76 2.24,5 5,5s5,-2.24 5,-5s-2.24,-5 -5,-5s-5,2.24 -5,5z"/>
 </g>
</svg>