<svg width="24" height="24" xmlns="http://www.w3.org/2000/svg">

 <g>
  <title>Layer 1</title>
  <path fill="#ffffff" id="svg_1" d="m15,12c0,1.657 -1.343,3 -3,3s-3,-1.343 -3,-3c0,-0.199 0.02,-0.393 0.057,-0.581c1.474,0.541 2.927,-0.882 2.405,-2.371c0.174,-0.03 0.354,-0.048 0.538,-0.048c1.657,0 3,1.344 3,3zm-2.985,-7c-7.569,0 -12.015,6.551 -12.015,6.551s4.835,7.449 12.015,7.449c7.733,0 11.985,-7.449 11.985,-7.449s-4.291,-6.551 -11.985,-6.551zm-0.015,12c-2.761,0 -5,-2.238 -5,-5c0,-2.761 2.239,-5 5,-5c2.762,0 5,2.239 5,5c0,2.762 -2.238,5 -5,5z"/>
 </g>
</svg>